<?xml version="1.0" encoding="UTF-8"?>
<!DOCTYPE svg PUBLIC "-//W3C//DTD SVG 1.1//EN" "http://www.w3.org/Graphics/SVG/1.1/DTD/svg11.dtd">
<!-- Creator: CorelDRAW 2020 (64 Bit) -->
<svg xmlns="http://www.w3.org/2000/svg" xml:space="preserve" width="210mm" height="159.279mm" version="1.1" style="shape-rendering:geometricPrecision; text-rendering:geometricPrecision; image-rendering:optimizeQuality; fill-rule:evenodd; clip-rule:evenodd"
viewBox="0 0 21000 15927.9"
 xmlns:xlink="http://www.w3.org/1999/xlink"
 xmlns:xodm="http://www.corel.com/coreldraw/odm/2003">
 <defs>
  <style type="text/css">
   <![CDATA[
    .fil0 {fill:white}
    .fil1 {fill:white;fill-rule:nonzero}
   ]]>
  </style>
 </defs>
 <g id="Camada_x0020_1">
  <metadata id="CorelCorpID_0Corel-Layer"/>
  <g id="_2999430028160">
   <path class="fil0" d="M7791.39 0.51l5410.98 0c934.13,0 1698.42,764.25 1698.42,1698.4l0 5411c0,934.11 -764.29,1698.4 -1698.42,1698.4l-5410.98 0c-934.15,0 -1698.42,-764.29 -1698.42,-1698.4l0 -5411c0,-934.15 764.27,-1698.4 1698.42,-1698.4zm1759.27 1064.15l1892.38 0c180.21,0 327.61,147.38 327.61,327.61l0 1738.29 1738.41 0c180.16,0 327.56,147.38 327.56,327.61l0 1892.41c0,180.2 -147.4,327.59 -327.56,327.59l-1738.41 0 0 1738.35c0,180.24 -147.4,327.64 -327.61,327.64l-1892.38 0c-180.23,0 -327.64,-147.4 -327.64,-327.64l0 -1738.35 -1738.26 0c-231.11,0 -327.64,-175.71 -327.64,-397.59l0 -1822.41c0,-180.23 147.41,-327.61 327.64,-327.61l1738.26 0 0 -1738.29c0,-180.23 147.41,-327.61 327.64,-327.61z"/>
   <path class="fil1" d="M279.35 14852.08c0,-38.95 -14.02,-52.97 -52.96,-52.97l-90.34 0c-38.95,0 -52.97,14.02 -52.97,52.97l0 672.92c0,249.24 155.77,403.44 436.15,403.44 280.4,0 434.6,-154.2 434.6,-403.44l0 -672.92c0,-38.95 -14.02,-52.97 -52.97,-52.97l-88.78 0c-38.93,0 -52.95,14.02 -52.95,52.97l0 674.48c0,141.75 -82.57,219.65 -239.9,219.65 -157.32,0 -239.88,-77.9 -239.88,-219.65l0 -674.48zm1027.79 -52.97c-38.94,0 -54.51,14.02 -54.51,52.97l0 1000.04c0,38.95 15.57,52.96 54.51,52.96l88.79 0c38.95,0 52.97,-14.01 52.97,-52.96l0 -367.62 115.27 0c105.93,0 143.31,21.81 185.36,109.04l130.86 264.81c18.68,38.95 37.38,46.73 105.91,46.73l90.37 0c35.82,0 45.15,-17.14 26.46,-52.96l-171.35 -328.67c-14.01,-29.61 -31.14,-51.41 -49.83,-66.98 130.84,-43.63 205.61,-154.22 205.61,-314.67 0,-213.4 -132.4,-342.69 -350.5,-342.69l-429.92 0zm532.75 461.08c-29.61,28.04 -70.11,42.06 -121.5,42.06l-269.49 0 0 -320.88 269.49 0c52.94,0 93.44,14.01 121.5,40.5 28.04,28.03 42.06,68.53 42.06,119.93 0,51.41 -14.02,91.91 -42.06,118.39zm948.37 38.95c-38.95,0 -52.97,14.02 -52.97,52.95l0 74.77c0,38.94 14.02,54.52 52.97,54.52l235.2 0 0 81c0,107.48 -96.58,183.83 -252.35,183.83 -160.45,0 -249.24,-77.9 -249.24,-222.76l0 -344.26c0,-143.3 87.24,-221.2 249.24,-221.2 124.61,0 204.06,48.28 238.33,143.31 14.02,38.94 29.61,46.73 66.98,32.71l85.68 -29.59c34.27,-12.46 45.16,-35.84 32.72,-68.53 -60.75,-172.92 -202.51,-260.16 -423.71,-260.16 -285.06,0 -445.51,154.22 -445.51,405.01l0 341.14c0,253.92 160.45,406.56 445.51,406.56 138.65,0 247.69,-34.27 327.11,-102.8 77.9,-66.99 116.85,-155.78 116.85,-264.81l0 -208.74c0,-38.93 -10.91,-52.95 -52.97,-52.95l-373.84 0zm1049.59 -810.02c-45.18,0 -54.52,4.68 -91.91,42.05l-158.88 152.67c-20.25,20.25 -14.02,38.93 23.36,38.93l63.87 0c42.06,0 49.84,-3.11 74.77,-28.04l93.47 -88.79 90.34 88.79c15.57,18.7 40.5,28.04 76.32,28.04l70.12 0c37.37,0 42.05,-18.68 21.8,-38.93l-157.33 -152.67c-38.94,-38.94 -48.28,-42.05 -87.23,-42.05l-18.7 0zm-305.31 309.99c-38.95,0 -54.52,14.02 -54.52,52.97l0 1000.04c0,38.95 15.57,52.96 54.52,52.96l635.55 0c38.95,0 52.97,-14.01 52.97,-52.96l0 -76.32c0,-38.95 -14.02,-52.97 -52.97,-52.97l-493.8 0 0 -286.61 403.44 0c38.95,0 52.97,-14.02 52.97,-52.97l0 -76.32c0,-38.95 -14.02,-52.97 -52.97,-52.97l-403.44 0 0 -272.59 476.66 0c38.95,0 54.52,-14.02 54.52,-52.97l0 -76.32c0,-38.95 -15.57,-52.97 -54.52,-52.97l-618.41 0zm1669.58 0c-38.95,0 -52.97,14.02 -52.97,52.97l0 482.88c0,140.2 34.27,316.23 34.27,314.65l-9.34 0c1.55,1.58 -59.2,-160.43 -130.84,-264.81l-378.53 -560.78c-10.91,-17.12 -28.06,-24.91 -51.41,-24.91l-88.79 0c-38.95,0 -54.52,14.02 -54.52,52.97l0 1000.04c0,38.95 15.57,52.96 54.52,52.96l82.56 0c38.94,0 52.96,-14.01 52.96,-52.96l0 -489.12c0,-130.84 -34.27,-314.67 -34.27,-309.99l9.34 0c-3.1,-4.68 62.31,166.68 127.74,261.7l381.63 563.89c10.91,17.15 28.06,26.48 51.41,26.48l88.79 0c38.95,0 52.97,-14.01 52.97,-52.96l0 -1000.04c0,-38.95 -14.02,-52.97 -52.97,-52.97l-82.55 0zm410.94 722.77c0,253.92 160.45,406.56 445.51,406.56 222.75,0 364.51,-87.21 425.26,-261.68 10.89,-32.72 0,-56.07 -34.27,-68.54l-84.13 -29.61c-37.37,-14.02 -51.39,-6.23 -68.54,32.72 -35.82,96.57 -115.27,144.88 -238.32,144.88 -160.45,0 -249.24,-79.45 -249.24,-222.76l0 -344.26c0,-143.3 88.79,-221.2 249.24,-221.2 124.61,0 204.06,48.28 238.32,143.31 14.02,37.39 29.61,45.18 66.99,32.71l85.68 -29.59c34.27,-12.46 45.16,-35.84 32.72,-68.53 -60.76,-172.92 -202.51,-260.16 -423.71,-260.16 -285.06,0 -445.51,154.22 -445.51,405.01l0 341.14zm1118.15 330.24c0,38.95 15.57,52.96 54.52,52.96l88.79 0c38.94,0 52.96,-14.01 52.96,-52.96l0 -1000.04c0,-38.95 -14.02,-52.97 -52.96,-52.97l-88.79 0c-38.95,0 -54.52,14.02 -54.52,52.97l0 1000.04zm1030.92 -1010.95c-12.47,-32.72 -28.04,-42.06 -65.43,-42.06l-82.56 0c-37.37,0 -51.39,7.79 -65.41,43.61l-389.44 1010.95c-12.46,34.27 0,51.41 35.82,51.41l71.67 0c63.85,0 84.1,-9.33 96.57,-46.73l73.22 -200.95 429.92 0 71.66 200.95c12.47,37.4 32.72,46.73 96.57,46.73l81.01 0c35.84,0 48.28,-17.14 35.84,-51.41l-389.44 -1012.5zm49.84 655.8l-320.88 0 119.95 -329.22c23.35,-66.96 34.27,-129.02 34.27,-187.96l10.89 0 1.57 26.22c4.66,35.85 17.12,107.23 35.82,163.32l118.38 327.64zm1230.3 -697.86c-38.95,0 -54.52,14.02 -54.52,52.97l0 1000.04c0,38.95 15.57,52.96 54.52,52.96l635.55 0c38.95,0 52.96,-14.01 52.96,-52.96l0 -76.32c0,-38.95 -14.01,-52.97 -52.96,-52.97l-493.8 0 0 -286.61 403.44 0c38.94,0 52.96,-14.02 52.96,-52.97l0 -76.32c0,-38.95 -14.02,-52.97 -52.96,-52.97l-403.44 0 0 -272.59 476.65 0c38.95,0 54.52,-14.02 54.52,-52.97l0 -76.32c0,-38.95 -15.57,-52.97 -54.52,-52.97l-618.4 0zm1674.23 0c-38.95,0 -54.52,14.02 -54.52,52.97l0 1000.04c0,38.95 15.57,52.96 54.52,52.96l635.55 0c38.95,0 52.97,-14.01 52.97,-52.96l0 -76.32c0,-38.95 -14.02,-52.97 -52.97,-52.97l-493.8 0 0 -286.61 403.44 0c38.95,0 52.97,-14.02 52.97,-52.97l0 -76.32c0,-38.95 -14.02,-52.97 -52.97,-52.97l-403.44 0 0 -272.59 476.66 0c38.95,0 54.52,-14.02 54.52,-52.97l0 -76.32c0,-38.95 -15.57,-52.97 -54.52,-52.97l-618.41 0zm1854.94 0c-42.06,0 -52.95,6.23 -71.64,42.06l-324.01 577.9 -324.01 -579.46c-17.12,-32.71 -31.16,-40.5 -74.77,-40.5l-68.54 0c-38.95,0 -54.52,14.02 -54.52,52.97l0 1000.04c0,38.95 15.57,52.96 54.52,52.96l74.77 0c38.95,0 52.97,-14.01 52.97,-52.96l0 -473.55c0,-101.25 -10.91,-205.61 -32.72,-311.54l10.91 0c32.7,107.48 71.65,202.5 119.93,283.5l155.78 271.05c17.14,31.16 28.03,37.39 60.75,37.39l49.86 0c24.91,0 45.16,-12.46 60.75,-37.39l152.64 -269.49c54.52,-99.68 98.15,-194.7 127.74,-285.06l10.91 0c-24.93,113.71 -37.39,216.52 -37.39,309.99l0 475.1c0,38.95 14.01,52.96 52.96,52.96l79.45 0c38.93,0 52.95,-14.01 52.95,-52.96l0 -1000.04c0,-38.95 -14.02,-52.97 -52.95,-52.97l-76.34 0zm490.41 0c-38.95,0 -54.52,14.02 -54.52,52.97l0 1000.04c0,38.95 15.57,52.96 54.52,52.96l635.55 0c38.95,0 52.97,-14.01 52.97,-52.96l0 -76.32c0,-38.95 -14.02,-52.97 -52.97,-52.97l-493.8 0 0 -286.61 403.44 0c38.95,0 52.96,-14.02 52.96,-52.97l0 -76.32c0,-38.95 -14.01,-52.97 -52.96,-52.97l-403.44 0 0 -272.59 476.65 0c38.95,0 54.52,-14.02 54.52,-52.97l0 -76.32c0,-38.95 -15.57,-52.97 -54.52,-52.97l-618.4 0zm991.97 0c-38.95,0 -54.52,14.02 -54.52,52.97l0 1000.04c0,38.95 15.57,52.96 54.52,52.96l88.79 0c38.94,0 52.96,-14.01 52.96,-52.96l0 -367.62 115.27 0c105.94,0 143.31,21.81 185.36,109.04l130.87 264.81c18.67,38.95 37.37,46.73 105.91,46.73l90.36 0c35.82,0 45.16,-17.14 26.46,-52.96l-171.34 -328.67c-14.02,-29.61 -31.14,-51.41 -49.84,-66.98 130.84,-43.63 205.61,-154.22 205.61,-314.67 0,-213.4 -132.39,-342.69 -350.49,-342.69l-429.92 0zm532.75 461.08c-29.61,28.04 -70.12,42.06 -121.51,42.06l-269.49 0 0 -320.88 269.49 0c52.95,0 93.45,14.01 121.51,40.5 28.03,28.03 42.05,68.53 42.05,119.93 0,51.41 -14.02,91.91 -42.05,118.39zm948.36 38.95c-38.95,0 -52.97,14.02 -52.97,52.95l0 74.77c0,38.94 14.02,54.52 52.97,54.52l235.2 0 0 81c0,107.48 -96.57,183.83 -252.35,183.83 -160.45,0 -249.23,-77.9 -249.23,-222.76l0 -344.26c0,-143.3 87.23,-221.2 249.23,-221.2 124.61,0 204.06,48.28 238.33,143.31 14.02,38.94 29.61,46.73 66.99,32.71l85.68 -29.59c34.27,-12.46 45.16,-35.84 32.71,-68.53 -60.75,-172.92 -202.5,-260.16 -423.71,-260.16 -285.06,0 -445.51,154.22 -445.51,405.01l0 341.14c0,253.92 160.45,406.56 445.51,406.56 138.65,0 247.69,-34.27 327.12,-102.8 77.9,-66.99 116.84,-155.78 116.84,-264.81l0 -208.74c0,-38.93 -10.91,-52.95 -52.96,-52.95l-373.85 0zm1049.6 -810.02c-45.19,0 -54.52,4.68 -91.92,42.05l-158.88 152.67c-20.25,20.25 -14.01,38.93 23.36,38.93l63.88 0c42.05,0 49.84,-3.11 74.77,-28.04l93.47 -88.79 90.34 88.79c15.57,18.7 40.5,28.04 76.32,28.04l70.11 0c37.37,0 42.05,-18.68 21.8,-38.93l-157.32 -152.67c-38.95,-38.94 -48.29,-42.05 -87.24,-42.05l-18.69 0zm-305.32 309.99c-38.94,0 -54.51,14.02 -54.51,52.97l0 1000.04c0,38.95 15.57,52.96 54.51,52.96l635.56 0c38.95,0 52.96,-14.01 52.96,-52.96l0 -76.32c0,-38.95 -14.01,-52.97 -52.96,-52.97l-493.8 0 0 -286.61 403.43 0c38.95,0 52.97,-14.02 52.97,-52.97l0 -76.32c0,-38.95 -14.02,-52.97 -52.97,-52.97l-403.43 0 0 -272.59 476.65 0c38.95,0 54.52,-14.02 54.52,-52.97l0 -76.32c0,-38.95 -15.57,-52.97 -54.52,-52.97l-618.41 0zm1669.58 0c-38.95,0 -52.96,14.02 -52.96,52.97l0 482.88c0,140.2 34.26,316.23 34.26,314.65l-9.33 0c1.55,1.58 -59.2,-160.43 -130.85,-264.81l-378.52 -560.78c-10.92,-17.12 -28.06,-24.91 -51.42,-24.91l-88.78 0c-38.95,0 -54.52,14.02 -54.52,52.97l0 1000.04c0,38.95 15.57,52.96 54.52,52.96l82.55 0c38.95,0 52.97,-14.01 52.97,-52.96l0 -489.12c0,-130.84 -34.27,-314.67 -34.27,-309.99l9.34 0c-3.11,-4.68 62.3,166.68 127.73,261.7l381.64 563.89c10.91,17.15 28.05,26.48 51.41,26.48l88.79 0c38.94,0 52.96,-14.01 52.96,-52.96l0 -1000.04c0,-38.95 -14.02,-52.97 -52.96,-52.97l-82.56 0zm410.94 722.77c0,253.92 160.45,406.56 445.51,406.56 222.76,0 364.51,-87.21 425.26,-261.68 10.89,-32.72 0,-56.07 -34.27,-68.54l-84.12 -29.61c-37.38,-14.02 -51.4,-6.23 -68.54,32.72 -35.82,96.57 -115.27,144.88 -238.33,144.88 -160.45,0 -249.24,-79.45 -249.24,-222.76l0 -344.26c0,-143.3 88.79,-221.2 249.24,-221.2 124.61,0 204.06,48.28 238.33,143.31 14.02,37.39 29.61,45.18 66.98,32.71l85.68 -29.59c34.27,-12.46 45.16,-35.84 32.72,-68.53 -60.75,-172.92 -202.51,-260.16 -423.71,-260.16 -285.06,0 -445.51,154.22 -445.51,405.01l0 341.14zm1118.15 330.24c0,38.95 15.57,52.96 54.52,52.96l88.79 0c38.95,0 52.97,-14.01 52.97,-52.96l0 -1000.04c0,-38.95 -14.02,-52.97 -52.97,-52.97l-88.79 0c-38.95,0 -54.52,14.02 -54.52,52.97l0 1000.04zm1030.92 -1010.95c-12.46,-32.72 -28.03,-42.06 -65.43,-42.06l-82.55 0c-37.38,0 -51.4,7.79 -65.41,43.61l-389.44 1010.95c-12.47,34.27 0,51.41 35.82,51.41l71.66 0c63.86,0 84.11,-9.33 96.57,-46.73l73.22 -200.95 429.92 0 71.67 200.95c12.46,37.4 32.71,46.73 96.57,46.73l81 0c35.84,0 48.29,-17.14 35.84,-51.41l-389.44 -1012.5zm49.84 655.8l-320.88 0 119.95 -329.22c23.36,-66.96 34.27,-129.02 34.27,-187.96l10.89 0 1.57 26.22c4.66,35.85 17.13,107.23 35.83,163.32l118.37 327.64z"/>
   <path class="fil1" d="M74.88 13990.77c-45.29,0 -82.01,-36.71 -82.01,-82.01 0,-45.29 36.72,-82 82.01,-82l20835.98 0c45.29,0 82.01,36.71 82.01,82 0,45.3 -36.72,82.01 -82.01,82.01l-20835.98 0z"/>
   <g>
    <path class="fil0" d="M10167.66 12318.29c246.83,0 446.93,200.1 446.93,446.93 0,246.83 -200.1,446.93 -446.93,446.93 -246.84,0 -446.94,-200.1 -446.94,-446.93 0,-246.83 200.1,-446.93 446.94,-446.93z"/>
    <path class="fil1" d="M4972.22 10327.77c393.29,0 749.38,159.43 1007.12,417.18 257.75,257.74 417.18,613.83 417.18,1007.12l-0.01 2.3 0 1449.33 -480.54 0 0 -384.87c-251.28,222.48 -581.76,357.57 -943.75,357.57 -393.31,0 -749.41,-159.44 -1007.14,-417.19 -257.75,-257.73 -417.19,-613.83 -417.19,-1007.14 0,-393.29 159.44,-749.38 417.19,-1007.12 257.75,-257.75 613.84,-417.18 1007.14,-417.18zm-2971.29 -974.3c531.83,0 1013.37,215.6 1361.91,564.14 56.01,56.01 108.56,115.48 157.36,178.01l-368.3 309.29c-39.62,-52.05 -82.66,-101.35 -128.83,-147.53 -261.57,-261.56 -622.98,-423.37 -1022.14,-423.37 -399.17,0 -760.57,161.81 -1022.13,423.37 -261.56,261.57 -423.37,622.98 -423.37,1022.14 0,399.17 161.81,760.56 423.37,1022.13 261.56,261.56 622.96,423.37 1022.13,423.37 399.16,0 760.57,-161.81 1022.14,-423.37 6.89,-6.89 13.69,-13.86 20.45,-20.89l368.6 309.51c-16.11,17.35 -32.54,34.41 -49.28,51.15 -348.54,348.54 -830.08,564.14 -1361.91,564.14 -531.84,0 -1013.36,-215.6 -1361.9,-564.14 -348.54,-348.54 -564.14,-830.06 -564.14,-1361.9 0,-531.84 215.6,-1013.37 564.14,-1361.91 348.54,-348.54 830.06,-564.14 1361.9,-564.14zm6608.75 974.3c376.39,0 718.7,146.04 973.35,384.5l-347.43 333.42c-166.56,-147.69 -385.77,-237.38 -625.92,-237.38 -260.61,0 -496.59,105.64 -667.35,276.41 -170.77,170.78 -276.41,406.75 -276.41,667.37 0,260.62 105.64,496.59 276.41,667.35 170.76,170.77 406.74,276.42 667.35,276.42 240.15,0 459.37,-89.7 625.94,-237.41l347.43 333.42c-254.66,238.49 -596.98,384.53 -973.37,384.53 -393.29,0 -749.38,-159.44 -1007.12,-417.19 -257.75,-257.73 -417.18,-613.83 -417.18,-1007.12 0,-393.29 159.43,-749.39 417.18,-1007.14 257.74,-257.75 613.83,-417.18 1007.12,-417.18zm-1581.43 -960.59l0 3836.52 -480.54 0 0 -3836.52 480.54 0zm-1112.28 2387.33l0 -2.42 0.01 0 0 -0.02c0,-260.63 -105.64,-496.59 -276.41,-667.35 -170.76,-170.77 -406.74,-276.41 -667.35,-276.41 -260.62,0 -496.6,105.64 -667.37,276.41 -170.77,170.76 -276.42,406.72 -276.42,667.35 0,260.64 105.65,496.61 276.42,667.37 170.76,170.77 406.73,276.42 667.37,276.42 260.61,0 496.59,-105.65 667.35,-276.42 170.23,-170.23 275.74,-405.29 276.4,-664.93z"/>
    <path class="fil1" d="M16504.35 10327.77c393.3,0 749.39,159.43 1007.13,417.18 257.75,257.74 417.18,613.83 417.18,1007.12 0,81.89 -6.94,162.19 -20.21,240.29 -772.33,0 -1544.67,0 -2317,0 43.07,164.09 129.17,310.73 245.54,427.08 170.77,170.77 406.75,276.42 667.36,276.42 252.26,0 481.4,-98.96 650.69,-260.17l294.79 381.62c-251.48,223.39 -582.65,359.09 -945.48,359.09 -393.29,0 -749.38,-159.44 -1007.13,-417.19 -257.75,-257.73 -417.19,-613.83 -417.19,-1007.14 0,-393.29 159.44,-749.38 417.19,-1007.12 257.75,-257.75 613.84,-417.18 1007.13,-417.18zm-5716.86 2875.93l0 -3836.52 212.13 0 1842.17 2366.35 1842.19 -2366.35 212.12 0 0 3836.52 -480.54 0 0 -2709.95 -1573.78 2021.56 -1573.74 -2021.56 0 2709.95 -480.55 0zm8707.06 -2875.93c358.2,0 685.52,132.28 935.81,350.6l0 -1311.19 480.54 0 0 2233.72c5.24,49.68 7.96,100.1 7.96,151.17 0,393.3 -159.44,749.39 -417.19,1007.14 -257.73,257.75 -613.83,417.19 -1007.12,417.19 -393.29,0 -749.39,-159.44 -1007.14,-417.19 -257.75,-257.73 -417.18,-613.83 -417.18,-1007.14 0,-393.29 159.43,-749.38 417.18,-1007.12 257.75,-257.75 613.85,-417.18 1007.14,-417.18zm935.81 1547.32l0 -246.03c-27.53,-211.44 -125,-400.9 -268.46,-544.34 -170.76,-170.77 -406.73,-276.41 -667.35,-276.41 -260.62,0 -496.59,105.64 -667.37,276.41 -170.77,170.76 -276.41,406.72 -276.41,667.35 0,260.64 105.64,496.61 276.41,667.37 170.78,170.77 406.75,276.42 667.37,276.42 260.62,0 496.59,-105.65 667.35,-276.42 143.46,-143.46 240.93,-332.92 268.46,-544.35zm-3013.11 -363.27c-43.07,-164.09 -129.18,-310.73 -245.54,-427.1 -170.76,-170.77 -406.74,-276.41 -667.36,-276.41 -260.61,0 -496.59,105.64 -667.36,276.41 -116.37,116.37 -202.47,263.01 -245.54,427.1l1825.8 0z"/>
   </g>
  </g>
 </g>
</svg>
